<?xml version="1.0" standalone="no"?>
<!DOCTYPE svg PUBLIC "-//W3C//DTD SVG 20010904//EN"
 "http://www.w3.org/TR/2001/REC-SVG-20010904/DTD/svg10.dtd">
<svg version="1.0" xmlns="http://www.w3.org/2000/svg"
 width="900.000000pt" height="512.000000pt" viewBox="0 0 900.000000 512.000000"
 preserveAspectRatio="xMidYMid meet">

<g transform="translate(0.000000,512.000000) scale(0.100000,-0.100000)"
fill="#000000" stroke="none">
<path d="M4675 4015 c-104 -17 -290 -78 -337 -110 -20 -14 -40 -25 -43 -25 -4
0 -35 -21 -71 -46 -100 -71 -177 -164 -231 -276 -26 -54 -54 -100 -62 -103
-18 -6 -71 -82 -71 -102 0 -23 -101 -314 -132 -384 -34 -74 -42 -79 -223 -145
-123 -45 -172 -59 -300 -85 -55 -11 -109 -23 -120 -25 -11 -3 -60 -9 -110 -15
-49 -5 -152 -16 -228 -25 -138 -15 -287 -54 -371 -96 -124 -63 -251 -187 -311
-305 -39 -76 -40 -80 -40 -183 0 -101 1 -107 35 -170 51 -95 134 -170 255
-229 55 -27 134 -57 175 -66 41 -9 89 -21 105 -26 17 -4 134 -22 260 -39 127
-16 271 -39 320 -49 50 -11 158 -33 240 -49 163 -32 347 -77 605 -147 251 -69
272 -74 455 -106 196 -34 422 -46 560 -31 112 13 335 55 435 82 41 11 138 36
215 54 209 51 454 114 464 121 5 3 54 19 108 35 113 33 255 96 328 145 63 42
178 155 238 234 73 96 90 135 95 227 4 71 1 86 -21 130 -28 56 -91 111 -214
188 -43 27 -96 61 -118 76 -22 15 -62 39 -90 54 -27 15 -88 50 -135 77 -47 28
-146 83 -220 121 -74 39 -140 75 -147 80 -10 8 -57 146 -132 388 -63 202 -115
331 -153 378 -6 6 -19 12 -29 12 -11 0 -29 17 -44 40 -42 67 -110 152 -157
196 -105 100 -278 182 -433 204 -94 13 -252 11 -350 -5z m352 -66 c200 -27
388 -151 504 -333 32 -51 36 -63 26 -80 -7 -13 -14 -102 -18 -226 -7 -210 -6
-208 -59 -348 -8 -21 -17 -31 -26 -28 -47 18 -102 27 -133 21 -82 -15 -165
-70 -200 -132 -7 -13 -22 -16 -67 -15 -258 9 -504 89 -704 229 -82 57 -229
208 -289 296 -51 75 -52 78 -40 115 65 201 249 373 479 448 25 8 54 19 65 24
71 34 316 49 462 29z m673 -608 c21 -62 45 -120 54 -129 19 -22 79 -211 105
-336 11 -55 27 -106 35 -115 7 -9 19 -33 25 -53 13 -39 41 -72 110 -127 60
-47 81 -86 81 -147 0 -71 -39 -128 -126 -188 -152 -103 -142 -99 -214 -93
-154 13 -442 145 -531 243 -44 49 -99 138 -99 161 0 25 8 28 105 43 71 11 93
20 189 78 72 43 97 79 101 145 1 28 14 79 28 112 59 143 62 162 66 505 1 40 2
43 17 29 8 -9 33 -66 54 -128z m-1709 -58 c104 -155 275 -311 432 -396 99 -55
214 -98 333 -125 132 -31 364 -55 466 -49 145 9 115 -12 -57 -38 -81 -13 -115
-47 -115 -116 0 -50 69 -169 132 -228 30 -28 31 -30 19 -73 -24 -84 -96 -155
-243 -239 -74 -41 -267 -125 -323 -139 -141 -36 -266 -60 -308 -60 -93 0 -309
86 -469 187 -21 12 -40 23 -44 23 -10 0 -187 113 -205 131 -9 9 -23 21 -31 25
-24 15 -88 100 -98 131 -12 33 -4 63 29 103 29 35 68 90 88 123 10 16 34 54
54 85 33 52 118 221 167 332 10 25 44 118 73 207 30 89 57 163 61 163 4 0 21
-21 39 -47z m1425 -399 c18 -9 38 -22 45 -30 20 -24 13 -66 -14 -90 -33 -29
-73 -21 -93 17 -16 31 -51 39 -60 14 -5 -11 -22 -15 -66 -15 l-61 0 25 31 c29
39 120 89 160 89 17 0 45 -7 64 -16z m-1805 -152 c-47 -86 -62 -108 -169 -263
-59 -84 -65 -134 -27 -212 41 -82 130 -166 260 -244 224 -135 350 -198 475
-241 89 -30 117 -35 186 -34 45 0 110 8 144 17 47 12 80 14 129 9 134 -16 257
6 386 67 37 17 84 32 104 33 35 1 35 1 43 -53 9 -59 41 -131 69 -157 50 -45
193 -60 229 -24 11 11 20 24 20 29 0 5 17 3 38 -5 44 -16 116 -18 142 -4 33
17 44 74 31 149 -11 57 -10 80 6 171 19 102 20 105 44 100 13 -3 51 -5 84 -5
52 1 69 6 125 40 36 22 67 42 70 45 3 3 21 17 40 30 61 41 127 120 141 169 29
103 9 200 -52 249 -16 13 -29 27 -29 32 0 7 30 -7 225 -111 33 -17 73 -42 88
-55 16 -13 33 -24 38 -24 5 0 35 -17 67 -38 31 -21 71 -47 88 -58 17 -10 53
-32 79 -49 143 -89 182 -167 140 -286 -39 -109 -254 -327 -373 -376 -20 -8
-55 -23 -77 -33 -62 -28 -308 -106 -425 -135 -847 -210 -835 -208 -1085 -208
-194 -1 -206 0 -416 41 -119 23 -229 46 -244 52 -14 5 -81 24 -148 40 -67 17
-144 38 -171 47 -175 57 -729 167 -1041 207 -392 51 -592 132 -691 282 -75
113 -74 212 2 339 76 124 186 212 334 267 110 41 169 52 375 73 278 28 462 67
655 138 52 20 100 36 106 36 7 1 0 -20 -15 -47z m1756 -728 c-5 -157 -3 -201
9 -229 8 -19 14 -50 14 -70 l0 -36 -37 7 c-21 4 -55 13 -75 21 -43 17 -48 30
-75 183 -10 57 -23 102 -33 114 -17 18 -18 18 -39 -3 -11 -11 -18 -27 -15 -35
4 -9 -6 -16 -31 -20 -20 -4 -57 -16 -83 -28 -40 -17 -210 -78 -219 -78 -2 0
-3 4 -3 8 0 5 19 15 43 21 23 7 67 26 97 41 30 15 71 36 90 45 56 29 162 110
201 155 38 42 52 66 69 113 l10 28 41 -22 42 -21 -6 -194z m95 147 c2 -5 39
-20 83 -34 44 -14 79 -29 79 -34 -1 -4 -10 -59 -20 -121 -15 -94 -16 -120 -6
-158 7 -24 12 -55 12 -69 0 -21 -5 -25 -30 -25 -45 0 -96 25 -117 56 -15 24
-18 54 -21 211 -3 119 0 183 6 183 6 0 12 -4 14 -9z"/>
<path d="M5200 3333 c-47 -24 -53 -62 -13 -89 41 -27 136 -26 164 3 25 25 20
66 -10 83 -37 20 -104 21 -141 3z"/>
<path d="M4610 3242 c-31 -15 -35 -21 -35 -57 0 -35 3 -40 31 -48 38 -11 107
6 135 34 21 21 25 59 7 77 -18 18 -98 15 -138 -6z"/>
<path d="M5030 3138 c-73 -6 -160 -33 -207 -64 -33 -21 -31 -62 3 -70 36 -9
236 2 304 17 67 14 130 45 130 63 0 44 -95 67 -230 54z m110 -57 c0 -4 -33
-12 -72 -15 -40 -4 -90 -10 -110 -13 -23 -3 -38 -2 -38 5 0 5 33 14 73 20 97
13 147 14 147 3z"/>
</g>
</svg>
