<?xml version="1.0" standalone="no"?>
<!DOCTYPE svg PUBLIC "-//W3C//DTD SVG 20010904//EN"
 "http://www.w3.org/TR/2001/REC-SVG-20010904/DTD/svg10.dtd">
<svg version="1.0" xmlns="http://www.w3.org/2000/svg"
 width="900.000000pt" height="520.000000pt" viewBox="0 0 900.000000 520.000000"
 preserveAspectRatio="xMidYMid meet">

<g transform="translate(0.000000,520.000000) scale(0.100000,-0.100000)"
fill="#000000" stroke="none">
<path d="M4305 4224 c-51 -7 -189 -36 -210 -44 -11 -5 -35 -14 -52 -22 -18 -7
-33 -16 -33 -20 0 -5 -5 -8 -11 -8 -6 0 -17 -6 -24 -12 -25 -23 -40 -33 -67
-47 -16 -8 -28 -18 -28 -23 0 -4 -7 -8 -15 -8 -8 0 -15 -4 -15 -10 0 -5 -9
-10 -20 -10 -11 0 -20 -4 -20 -10 0 -5 -7 -10 -16 -10 -9 0 -28 -6 -42 -14
-76 -39 -115 -56 -128 -56 -8 0 -14 -4 -14 -10 0 -5 -9 -10 -20 -10 -11 0 -20
-4 -20 -10 0 -5 -7 -10 -15 -10 -16 0 -124 -42 -157 -60 -10 -6 -25 -10 -33
-10 -8 0 -15 -4 -15 -10 0 -5 -11 -10 -25 -10 -14 0 -25 -4 -25 -10 0 -5 -7
-10 -16 -10 -15 0 -113 -38 -156 -61 -10 -5 -25 -9 -33 -9 -8 0 -15 -4 -15
-10 0 -5 -9 -10 -19 -10 -11 0 -22 -4 -25 -9 -3 -5 -17 -12 -31 -15 -34 -9
-159 -68 -163 -78 -2 -4 -11 -8 -19 -8 -9 0 -46 -14 -82 -31 -36 -17 -82 -38
-101 -47 -19 -9 -37 -19 -40 -22 -5 -5 -78 -43 -305 -159 -60 -31 -119 -64
-129 -73 -11 -10 -26 -18 -33 -18 -7 0 -13 -4 -13 -9 0 -5 -25 -21 -55 -36
-30 -16 -55 -32 -55 -37 0 -4 -6 -8 -12 -8 -7 0 -19 -12 -25 -27 -17 -35 -16
-459 0 -629 15 -154 8 -146 247 -272 47 -24 90 -51 97 -59 6 -8 14 -38 18 -66
4 -29 10 -56 14 -62 4 -5 13 -29 21 -53 7 -23 17 -42 22 -42 4 0 8 -9 8 -20 0
-11 5 -20 10 -20 6 0 10 -5 10 -10 0 -23 120 -170 139 -170 5 0 11 -4 13 -9 5
-14 110 -77 153 -92 22 -7 44 -17 50 -21 5 -4 19 -8 31 -8 13 0 25 -4 28 -9 3
-5 32 -11 63 -15 148 -16 233 -37 233 -58 0 -4 9 -8 20 -8 11 0 20 -4 20 -10
0 -5 13 -10 29 -10 17 0 33 -4 36 -10 8 -13 127 -13 179 1 87 23 121 33 126
39 19 24 45 27 77 9 18 -11 45 -19 59 -19 15 0 39 -14 63 -37 64 -65 97 -90
127 -98 39 -10 117 -11 186 -1 60 9 98 4 120 -17 7 -6 30 -20 50 -31 20 -10
45 -26 55 -35 10 -9 30 -22 46 -30 15 -8 27 -17 27 -20 0 -4 20 -15 45 -26 25
-11 45 -23 45 -27 0 -5 7 -8 15 -8 8 0 15 -4 15 -10 0 -5 9 -10 20 -10 11 0
20 -4 20 -10 0 -5 7 -10 15 -10 8 0 23 -4 33 -9 48 -24 95 -41 115 -41 13 0
28 -5 35 -12 14 -14 245 -16 264 -1 7 6 32 13 56 17 24 3 51 10 60 15 9 5 35
17 57 26 22 10 67 30 100 45 33 15 75 34 93 41 17 8 32 17 32 21 0 5 9 8 20 8
11 0 20 5 20 10 0 6 7 10 15 10 8 0 15 5 15 10 0 6 9 10 19 10 11 0 21 4 23 8
2 4 23 19 48 33 74 41 93 53 111 69 10 8 35 24 56 35 21 11 45 28 54 37 9 10
21 18 28 18 6 0 11 3 11 8 0 4 21 20 48 37 26 16 55 37 65 46 9 9 30 22 45 30
15 8 29 16 32 19 13 13 91 60 100 60 5 0 10 5 10 10 0 6 7 10 15 10 8 0 15 4
15 8 0 5 12 15 28 23 15 7 48 28 74 46 26 18 52 33 58 33 5 0 10 4 10 8 0 4
15 16 33 27 17 10 34 21 37 25 3 3 21 17 40 30 19 13 37 27 40 30 3 4 32 26
65 49 33 23 88 63 122 89 34 26 74 56 89 67 78 56 159 120 162 127 2 4 8 8 13
8 6 0 20 10 33 23 13 12 34 32 47 44 32 28 40 40 67 91 21 42 22 55 22 283 0
153 -4 239 -10 239 -5 0 -10 5 -10 10 0 20 -55 96 -110 150 -30 30 -82 69
-115 85 -33 17 -61 33 -63 38 -2 4 -12 7 -23 7 -10 0 -19 5 -19 10 0 6 -9 10
-20 10 -11 0 -20 5 -20 10 0 6 -10 10 -23 10 -13 0 -27 4 -33 9 -5 5 -47 20
-94 35 -47 15 -99 31 -116 36 -17 6 -40 10 -52 10 -11 0 -24 5 -27 10 -3 6
-26 10 -50 10 -24 0 -46 4 -49 9 -3 4 -23 11 -43 14 -21 4 -56 16 -78 27 -21
11 -45 20 -52 20 -7 0 -21 4 -31 9 -9 5 -30 14 -47 21 -16 7 -38 16 -47 21
-10 5 -23 9 -29 9 -16 0 -123 53 -127 63 -2 4 -10 7 -18 7 -8 0 -14 3 -14 8 0
4 -15 13 -32 21 -18 8 -49 25 -68 38 -19 13 -43 23 -52 23 -10 0 -18 5 -18 10
0 6 -7 10 -15 10 -8 0 -15 3 -15 8 0 4 -10 12 -23 17 -12 6 -40 20 -62 32 -99
53 -255 119 -325 139 -44 12 -164 72 -207 103 -24 17 -46 31 -51 31 -4 0 -14
9 -22 20 -8 11 -18 20 -22 20 -11 0 -92 53 -96 63 -2 4 -12 7 -23 7 -10 0 -19
5 -19 10 0 6 -7 10 -15 10 -8 0 -15 5 -15 10 0 6 -9 10 -20 10 -11 0 -20 3
-20 8 0 24 -226 58 -315 46z m213 -83 c9 -5 45 -22 80 -37 34 -15 62 -31 62
-36 0 -4 5 -8 10 -8 6 0 20 -9 32 -20 12 -11 28 -20 35 -20 7 0 13 -4 13 -9 0
-5 8 -12 18 -15 9 -3 33 -19 52 -36 19 -16 39 -30 43 -30 4 0 16 -8 27 -18 29
-27 195 -107 275 -132 77 -25 178 -70 183 -82 2 -4 10 -8 17 -8 8 0 34 -11 57
-24 24 -13 77 -41 118 -64 41 -22 95 -52 120 -66 25 -14 53 -26 62 -26 9 0 18
-4 20 -8 4 -10 189 -99 239 -115 21 -6 39 -15 39 -19 0 -5 9 -8 20 -8 11 0 28
-4 38 -9 9 -5 71 -21 137 -36 66 -14 128 -30 137 -35 10 -6 29 -10 42 -10 14
0 28 -4 31 -10 3 -5 15 -10 26 -10 10 0 27 -4 37 -9 9 -6 51 -22 92 -37 41
-15 79 -31 84 -36 6 -4 18 -8 28 -8 10 0 18 -3 18 -8 0 -4 15 -14 33 -21 38
-17 111 -63 115 -73 2 -5 8 -8 13 -8 12 0 70 -59 87 -88 14 -26 16 -118 2
-127 -5 -3 -10 -13 -10 -20 0 -30 -135 -166 -183 -184 -6 -2 -21 -14 -32 -25
-12 -12 -46 -37 -76 -56 -30 -19 -59 -39 -65 -45 -30 -26 -55 -45 -60 -45 -9
0 -108 -73 -112 -82 -2 -5 -9 -8 -15 -8 -7 0 -25 -11 -41 -25 -16 -14 -32 -25
-36 -25 -3 0 -15 -8 -26 -18 -10 -9 -46 -35 -79 -57 -33 -22 -68 -47 -77 -56
-10 -9 -31 -22 -46 -30 -15 -8 -32 -19 -39 -25 -6 -6 -35 -26 -65 -45 -29 -18
-58 -38 -64 -44 -6 -6 -42 -31 -80 -55 -38 -25 -78 -53 -88 -62 -11 -10 -25
-18 -32 -18 -7 0 -14 -3 -16 -8 -4 -9 -126 -82 -139 -82 -5 0 -9 -4 -9 -10 0
-5 -6 -10 -14 -10 -8 0 -16 -3 -18 -7 -1 -5 -39 -26 -83 -48 -44 -22 -81 -43
-83 -47 -2 -5 -10 -8 -18 -8 -8 0 -22 -4 -32 -9 -43 -23 -141 -61 -156 -61 -9
0 -16 -4 -16 -10 0 -5 -11 -10 -24 -10 -14 0 -28 -4 -31 -10 -3 -5 -16 -10
-27 -10 -12 0 -37 -5 -55 -10 -18 -6 -49 -15 -68 -21 -48 -14 -275 -14 -322 1
-61 20 -295 138 -301 153 -2 4 -10 7 -18 7 -8 0 -14 4 -14 9 0 5 -8 11 -17 14
-37 9 60 38 160 48 175 18 260 32 302 48 66 26 145 66 145 73 0 4 6 8 14 8 8
0 16 3 18 8 2 4 26 25 53 47 95 75 248 239 280 299 7 11 22 38 33 59 12 21 22
49 22 64 0 32 60 112 129 173 160 140 338 317 354 353 6 15 15 27 18 27 3 0
16 21 29 48 12 26 26 55 31 64 12 24 11 185 -1 193 -5 3 -10 14 -10 25 0 20
-37 97 -57 118 -7 7 -13 17 -13 22 0 17 -82 91 -129 114 -53 28 -119 42 -251
57 -142 16 -250 28 -357 40 -76 9 -127 10 -205 1 -153 -17 -192 -23 -203 -33
-5 -5 -26 -9 -46 -9 -21 0 -41 -4 -44 -10 -7 -11 -134 -13 -151 -2 -6 4 -17
25 -24 47 -7 22 -17 53 -23 68 -12 33 -83 97 -109 97 -10 0 -18 5 -18 10 0 6
-19 10 -42 10 -24 0 -49 4 -55 8 -14 9 -126 -3 -188 -20 -40 -12 -159 -56
-225 -85 -19 -8 -44 -19 -55 -23 -99 -39 -129 -50 -139 -50 -6 0 -33 -11 -60
-25 -27 -14 -58 -25 -68 -25 -10 0 -18 -4 -18 -10 0 -5 -7 -10 -15 -10 -8 0
-23 -4 -33 -10 -9 -5 -87 -43 -172 -85 -137 -67 -183 -91 -319 -170 -48 -28
-121 -104 -121 -125 0 -6 -4 -10 -9 -10 -5 0 -12 -13 -16 -29 -3 -16 -18 -37
-32 -46 -32 -21 -73 -57 -127 -111 -54 -53 -76 -81 -102 -129 -12 -23 -26 -50
-32 -60 -6 -11 -17 -35 -24 -52 -15 -39 -17 -39 -46 -13 -12 11 -24 20 -27 20
-17 0 -154 97 -186 130 -57 61 -103 180 -69 180 6 0 10 5 10 12 0 16 61 78 76
78 7 0 14 4 16 8 4 11 98 62 114 62 8 0 14 4 14 8 0 5 16 14 35 22 19 8 35 17
35 22 0 4 9 8 20 8 11 0 20 5 20 10 0 6 5 10 11 10 16 0 203 93 207 102 2 5
10 8 18 8 12 0 70 26 136 61 10 5 25 9 33 9 8 0 15 3 15 8 0 7 8 11 115 57 33
14 68 30 77 35 10 6 25 10 33 10 8 0 15 5 15 10 0 6 7 10 15 10 8 0 23 4 33 9
43 23 141 61 156 61 9 0 16 5 16 10 0 6 7 10 15 10 8 0 24 5 35 10 11 6 29 15
40 20 11 6 24 10 30 10 5 0 34 11 64 25 30 14 57 25 60 25 6 0 56 21 164 71
34 16 73 31 87 35 14 3 25 10 25 15 0 5 6 9 14 9 14 0 171 86 192 105 65 58
191 114 264 116 19 0 44 4 55 9 27 12 191 12 213 1z m-366 -423 c32 -7 58 -16
58 -20 0 -4 6 -8 13 -8 24 0 67 -76 67 -120 0 -23 50 -80 71 -80 10 0 19 -4
19 -10 0 -6 32 -10 75 -10 41 0 75 4 75 9 0 5 21 11 48 14 26 3 94 14 152 25
175 33 218 35 321 17 52 -9 144 -21 204 -26 146 -13 244 -25 275 -34 91 -26
165 -82 201 -153 8 -15 16 -29 19 -32 15 -13 35 -101 34 -146 -1 -49 -40 -154
-56 -154 -5 0 -8 -5 -8 -10 0 -18 -111 -133 -348 -359 -123 -118 -130 -126
-147 -185 -20 -71 -32 -99 -54 -123 -9 -10 -22 -30 -29 -44 -21 -41 -231 -249
-252 -249 -4 0 -10 -3 -12 -7 -5 -12 -83 -63 -96 -63 -7 0 -12 -4 -12 -10 0
-5 -9 -10 -20 -10 -11 0 -20 -4 -20 -9 0 -10 -20 -14 -175 -36 -238 -33 -296
-46 -335 -71 -58 -38 -72 -74 -99 -254 -12 -72 -27 -105 -59 -121 -31 -17
-174 -17 -180 0 -2 6 -8 11 -13 11 -18 0 -79 69 -79 90 0 11 4 20 8 20 11 0
52 78 52 99 0 10 3 21 7 25 12 12 33 79 47 150 16 82 7 128 -39 201 -17 28
-34 55 -38 62 -9 15 30 53 55 53 10 0 18 5 18 10 0 6 7 10 14 10 18 0 170 72
174 82 2 5 10 8 18 8 8 0 14 5 14 10 0 6 9 10 20 10 11 0 20 4 20 8 0 5 18 17
40 28 22 10 40 22 40 27 0 4 6 7 13 7 7 0 19 9 27 20 15 21 66 27 98 11 58
-29 172 -42 210 -22 9 5 30 15 46 22 48 23 103 81 135 143 17 32 31 66 31 76
0 9 10 27 23 40 47 51 67 85 67 118 0 18 5 43 11 54 16 30 -4 88 -41 121 -49
44 -112 35 -170 -24 -30 -31 -62 -49 -88 -49 -29 0 -63 44 -69 89 -3 23 -10
44 -14 47 -5 3 -9 16 -9 30 0 13 -4 24 -10 24 -5 0 -10 7 -10 15 0 16 -49 107
-73 136 -9 10 -17 24 -17 29 0 6 -4 10 -10 10 -5 0 -10 5 -10 11 0 13 -96 109
-109 109 -5 0 -11 3 -13 8 -6 14 -66 42 -124 57 -68 18 -184 19 -269 4 -33 -6
-99 -16 -147 -22 -47 -7 -90 -15 -94 -19 -4 -5 -67 -8 -140 -8 -78 0 -135 -4
-139 -10 -3 -5 -22 -10 -42 -10 -39 0 -51 -3 -178 -44 -44 -14 -89 -25 -100
-25 -17 1 -17 2 -2 6 9 2 17 8 17 12 0 5 25 19 55 32 30 13 55 27 55 31 0 5 9
8 20 8 11 0 20 5 20 10 0 6 6 10 14 10 8 0 34 11 57 25 24 14 52 25 62 25 9 0
17 5 17 10 0 6 9 10 19 10 11 0 23 5 26 10 3 6 15 10 25 10 10 0 20 4 22 8 4
11 137 62 161 62 9 0 17 5 17 10 0 6 9 10 20 10 11 0 28 4 38 9 9 5 28 13 42
19 14 5 45 19 70 30 25 12 57 24 73 28 15 3 30 10 33 15 3 5 15 9 28 9 12 0
26 3 30 8 8 7 96 28 130 31 11 0 46 -4 78 -11z m-78 -375 c71 -6 133 -38 189
-96 35 -36 42 -49 38 -71 -2 -9 39 -98 48 -106 4 -3 17 -27 31 -55 14 -27 27
-52 31 -55 3 -3 9 -17 12 -32 9 -34 84 -129 108 -135 11 -3 19 -9 19 -14 0
-18 104 -9 130 11 14 11 29 20 33 20 4 0 19 11 33 25 20 20 64 35 64 22 0 -9
-38 -47 -46 -47 -5 0 -18 -12 -29 -27 -11 -14 -26 -32 -32 -39 -7 -7 -13 -17
-13 -22 0 -16 -79 -92 -95 -92 -7 0 -15 -4 -17 -10 -1 -5 -30 -10 -63 -11 -80
-1 -165 41 -245 121 -16 16 -37 25 -57 26 -32 1 -33 0 -33 -36 0 -32 7 -43 53
-84 28 -25 58 -46 65 -46 6 0 12 -4 12 -10 0 -5 7 -10 15 -10 8 0 15 -6 15
-13 0 -22 -144 -147 -169 -147 -6 0 -11 -4 -11 -9 0 -5 -13 -14 -30 -21 -16
-7 -30 -16 -30 -21 0 -5 -7 -9 -15 -9 -8 0 -15 -4 -15 -10 0 -5 -5 -10 -11
-10 -10 0 -164 -71 -231 -106 -31 -17 -44 -5 -28 26 5 11 15 29 20 40 6 11 10
29 10 39 0 11 5 23 10 26 6 3 10 44 10 91 0 49 -4 84 -10 84 -5 0 -10 5 -10
11 0 16 -54 91 -99 138 -48 50 -91 56 -109 16 -11 -23 -7 -30 48 -90 32 -36
66 -80 74 -97 19 -37 21 -96 5 -135 -19 -47 -26 -67 -39 -103 -33 -95 -63
-140 -96 -140 -13 0 -24 5 -24 12 0 14 19 77 31 100 14 27 11 133 -5 162 -27
53 -102 122 -144 133 -25 6 -62 -20 -62 -44 0 -7 16 -28 36 -46 105 -93 110
-108 74 -207 -29 -80 -27 -131 9 -169 23 -25 37 -31 69 -31 37 0 64 -13 44
-22 -4 -1 -23 -25 -42 -53 -47 -68 -64 -89 -143 -167 -38 -37 -75 -68 -83 -68
-8 0 -14 -4 -14 -10 0 -5 -7 -10 -15 -10 -8 0 -15 -4 -15 -9 0 -5 -8 -11 -17
-14 -137 -42 -166 -47 -253 -48 -152 -2 -325 47 -419 118 -37 29 -101 95 -119
126 -9 15 -20 27 -24 27 -4 0 -8 5 -8 12 0 6 -11 34 -25 62 -42 86 -58 177
-63 351 -3 152 6 243 29 287 5 10 9 25 9 35 0 30 69 157 119 218 26 33 76 80
111 105 34 25 68 50 74 55 7 6 21 15 31 21 74 40 91 50 95 54 9 10 156 80 168
80 12 0 24 5 69 28 13 7 32 12 42 12 11 0 23 5 26 10 3 6 19 10 34 10 15 0 31
4 37 9 12 12 77 20 254 30 80 5 192 18 249 30 57 12 124 21 150 22 25 0 55 4
66 9 11 5 26 7 34 4 8 -3 42 -7 75 -11z m-1069 -63 c3 -5 -1 -10 -10 -10 -9 0
-13 5 -10 10 3 6 8 10 10 10 2 0 7 -4 10 -10z m-940 -500 c-3 -5 0 -10 9 -10
8 0 16 -4 18 -8 2 -5 30 -26 63 -47 33 -21 62 -40 65 -44 3 -3 16 -12 30 -19
72 -37 72 -37 57 -147 -8 -55 -13 -128 -11 -163 2 -35 1 -62 -4 -60 -4 2 -29
15 -57 27 -27 13 -51 28 -53 32 -2 5 -12 9 -23 9 -10 0 -19 5 -19 10 0 6 -6
10 -13 10 -7 0 -27 12 -45 28 -28 24 -32 34 -34 82 -5 125 2 310 13 310 5 0 7
-4 4 -10z m4905 -207 c0 -72 -4 -95 -21 -123 -32 -53 -138 -154 -239 -226 -27
-20 -50 -40 -50 -45 0 -5 -6 -9 -13 -9 -7 0 -22 -8 -33 -18 -32 -30 -147 -116
-189 -142 -22 -13 -46 -30 -53 -36 -6 -7 -21 -16 -32 -19 -11 -3 -20 -11 -20
-16 0 -5 -7 -9 -15 -9 -8 0 -15 -4 -15 -9 0 -5 -8 -12 -17 -15 -33 -13 -63
-31 -63 -38 0 -5 -7 -8 -15 -8 -8 0 -15 -4 -15 -10 0 -5 -4 -10 -10 -10 -5 0
-55 -29 -110 -65 -55 -36 -105 -65 -110 -65 -6 0 -10 -4 -10 -9 0 -5 -8 -12
-17 -15 -10 -3 -31 -17 -47 -31 -16 -14 -33 -25 -37 -25 -4 0 -14 -6 -21 -13
-7 -7 -38 -30 -68 -50 -30 -20 -59 -41 -65 -45 -28 -22 -134 -91 -165 -107
-19 -10 -37 -21 -40 -24 -3 -3 -16 -12 -30 -20 -116 -66 -144 -81 -156 -81 -8
0 -14 -4 -14 -10 0 -5 -9 -10 -20 -10 -11 0 -20 -4 -20 -10 0 -5 -7 -10 -15
-10 -8 0 -29 -8 -47 -18 -44 -24 -120 -52 -141 -52 -9 0 -17 -4 -17 -9 0 -13
-55 -23 -165 -28 -95 -4 -164 6 -189 29 -6 4 -16 8 -23 8 -17 0 -167 72 -171
82 -2 4 -10 8 -18 8 -8 0 -14 5 -14 10 0 6 -5 10 -11 10 -6 0 -34 16 -63 35
-29 19 -58 35 -65 35 -6 0 -11 4 -11 8 0 4 -25 23 -56 41 -30 19 -51 37 -47
40 13 9 33 97 33 142 0 41 0 41 31 35 17 -3 43 -15 59 -26 15 -11 33 -20 39
-20 6 0 11 -4 11 -10 0 -5 9 -10 19 -10 11 0 21 -4 23 -8 3 -7 100 -56 143
-72 79 -29 109 -33 247 -32 83 0 155 5 167 11 11 6 31 11 45 11 14 0 28 5 31
10 3 6 21 10 40 10 19 0 36 4 39 9 3 4 24 11 46 15 23 3 49 10 58 15 36 19
112 51 122 51 5 0 10 5 10 10 0 6 9 10 19 10 11 0 22 4 26 9 3 5 19 12 35 16
17 4 30 11 30 16 0 5 9 9 20 9 11 0 20 4 20 8 0 5 16 14 35 22 19 8 35 16 35
19 0 3 19 15 43 26 23 11 47 23 52 28 6 4 57 37 115 74 58 36 107 69 108 74 2
5 10 9 18 9 8 0 14 4 14 8 0 5 12 15 28 23 33 17 96 61 100 72 2 4 8 7 12 7 5
0 38 20 73 45 36 25 68 45 72 45 4 0 15 8 24 18 14 16 100 77 149 107 9 6 19
12 22 15 15 16 109 80 118 80 6 0 12 4 14 8 2 4 35 30 73 57 39 27 72 53 73
57 2 5 10 8 17 8 7 0 15 3 17 8 2 4 35 30 73 57 87 61 82 57 130 100 22 19 43
35 48 35 4 0 7 -39 7 -87z m-2280 -11 c0 -15 -75 -93 -104 -107 -42 -22 -141
-16 -185 12 -1 1 6 12 18 24 17 19 32 23 93 24 69 2 158 28 158 47 0 5 5 8 10
8 6 0 10 -4 10 -8z m-906 -567 c6 -11 14 -22 17 -25 3 -3 11 -19 17 -36 10
-24 10 -40 -2 -85 -47 -176 -91 -268 -128 -269 -27 0 -29 14 -12 82 26 100 28
135 10 172 -22 47 -20 68 9 102 14 16 31 41 38 57 14 31 34 32 51 2z m-174
-220 c0 -81 -62 -172 -146 -215 -40 -21 -61 -25 -136 -24 -98 0 -129 14 -76
33 18 7 41 17 50 22 10 5 25 9 33 9 8 0 15 3 15 8 0 4 18 16 41 26 22 11 53
32 69 48 17 15 33 28 36 28 11 0 74 68 74 79 0 6 9 11 20 11 15 0 20 -7 20
-25z"/>
<path d="M2659 2519 c-18 -18 -21 -30 -17 -75 7 -79 54 -119 94 -80 18 18 19
108 2 139 -25 43 -47 48 -79 16z"/>
<path d="M2885 2460 c-22 -24 -18 -108 8 -159 9 -19 17 -40 17 -48 0 -7 5 -13
10 -13 6 0 10 -7 10 -15 0 -8 3 -15 8 -15 4 0 13 -13 20 -29 25 -56 69 -91
115 -91 57 0 65 64 18 140 -17 28 -31 55 -31 60 0 6 -4 10 -8 10 -4 0 -16 21
-27 46 -10 26 -32 66 -47 90 -31 49 -63 58 -93 24z m83 -129 c13 -27 39 -75
58 -107 33 -55 39 -80 11 -53 -27 28 -67 94 -67 111 0 10 -4 18 -10 18 -5 0
-10 9 -10 19 0 11 -4 23 -10 26 -12 7 -14 35 -2 35 4 0 17 -22 30 -49z"/>
<path d="M2928 2006 c-21 -15 -23 -44 -5 -66 53 -66 157 -66 157 0 0 55 -106
101 -152 66z"/>
</g>
</svg>
