<?xml version="1.0" standalone="no"?>
<!DOCTYPE svg PUBLIC "-//W3C//DTD SVG 20010904//EN"
 "http://www.w3.org/TR/2001/REC-SVG-20010904/DTD/svg10.dtd">
<svg version="1.0" xmlns="http://www.w3.org/2000/svg"
 width="626.000000pt" height="626.000000pt" viewBox="0 0 626.000000 626.000000"
 preserveAspectRatio="xMidYMid meet">
<metadata>
Created by potrace 1.16, written by Peter Selinger 2001-2019
</metadata>
<g transform="translate(0.000000,626.000000) scale(0.100000,-0.100000)"
fill="#000000" stroke="none">
<path d="M2282 4523 c-91 -45 -152 -223 -152 -444 0 -175 35 -356 105 -539 20
-51 34 -94 33 -95 -2 -1 -18 -10 -37 -20 -48 -24 -121 -94 -121 -117 0 -11 10
-22 25 -28 l25 -10 -34 -45 c-20 -25 -38 -61 -42 -81 -7 -40 8 -84 30 -84 11
0 13 -13 8 -66 -5 -61 -3 -65 18 -71 22 -6 22 -7 15 -138 -5 -89 -3 -150 5
-188 l12 -58 -46 -77 c-110 -189 -163 -390 -126 -486 l10 -26 -354 0 c-195 0
-361 -3 -370 -6 -19 -7 -21 -45 -4 -62 9 -9 109 -12 391 -12 l378 0 32 -24
c84 -63 184 -93 338 -102 57 -3 124 -10 149 -15 30 -6 63 -6 100 1 71 13 236
24 320 20 36 -1 90 -4 121 -5 30 -2 81 -8 113 -15 43 -9 69 -9 101 -1 24 6 72
11 107 11 146 1 289 38 371 96 l47 34 554 0 c305 0 561 3 570 6 21 8 21 60 0
68 -9 3 -256 6 -550 6 l-534 0 10 26 c27 69 1 227 -59 358 l-28 62 19 43 c10
24 23 72 28 105 16 102 23 121 45 121 29 0 47 42 41 100 -2 28 -7 58 -11 68
-6 14 -2 17 23 17 46 0 51 41 15 112 -16 33 -17 43 -3 44 6 1 15 2 20 3 29 3
-7 120 -64 210 l-34 54 57 42 c165 123 302 358 356 616 19 88 22 228 6 284
-11 43 -52 88 -88 99 -83 25 -340 -113 -601 -324 l-113 -91 -37 13 c-21 7 -87
13 -152 14 -87 1 -126 5 -160 19 -34 14 -73 19 -162 20 l-117 1 -103 136
c-168 222 -292 356 -378 410 -40 26 -82 30 -118 11z m104 -72 c89 -65 286
-291 417 -478 l50 -72 111 6 c99 5 118 3 171 -17 50 -18 78 -22 165 -20 98 1
131 -4 201 -34 11 -5 48 20 120 79 216 177 423 306 541 337 42 11 49 10 67 -6
55 -50 48 -238 -15 -426 -78 -233 -209 -417 -351 -492 -26 -14 -43 -30 -43
-40 0 -10 15 -39 34 -65 36 -52 76 -126 76 -143 0 -5 -18 -10 -39 -10 -55 0
-61 -24 -18 -69 32 -33 57 -71 57 -85 0 -3 -14 -6 -30 -6 -40 0 -46 -19 -26
-82 9 -28 16 -61 16 -74 0 -21 -4 -23 -37 -21 l-38 2 0 -65 c0 -80 -18 -107
-120 -186 -146 -111 -316 -190 -480 -221 -121 -23 -323 -13 -440 21 -178 53
-384 176 -469 279 -71 87 -107 225 -88 336 13 70 8 91 -19 91 -21 0 -25 24 -9
64 12 34 4 53 -26 60 -13 4 -24 12 -24 19 0 18 42 73 76 99 52 40 52 58 3 78
-38 16 -27 30 57 71 35 16 64 36 64 43 0 8 -11 38 -24 67 -42 95 -94 271 -111
376 -25 147 -17 372 15 465 24 72 80 148 109 148 10 0 36 -13 57 -29z m-154
-2039 c31 -55 105 -136 167 -180 27 -20 38 -33 30 -36 -77 -22 -94 -33 -94
-56 0 -28 18 -30 90 -11 215 57 495 -107 495 -290 0 -22 -5 -29 -20 -29 -14 0
-20 7 -20 23 0 27 -24 63 -52 78 -20 11 -20 10 -4 -12 32 -46 15 -99 -31 -99
-19 0 -23 5 -23 29 0 26 -37 88 -46 78 -3 -2 0 -17 6 -32 24 -62 -57 -107
-155 -86 -27 5 -97 12 -155 15 -294 13 -413 137 -354 370 15 63 118 286 132
286 4 0 19 -21 34 -48z m1578 -164 c45 -115 51 -224 18 -288 -51 -98 -159
-144 -378 -161 -192 -15 -225 -15 -256 5 -24 16 -26 22 -21 64 l5 47 -24 -28
c-14 -16 -24 -41 -24 -58 0 -24 -4 -29 -23 -29 -46 0 -63 53 -31 99 16 22 16
23 -4 12 -28 -15 -52 -51 -52 -78 0 -16 -6 -23 -20 -23 -15 0 -20 7 -20 29 0
152 198 301 401 301 37 0 89 -7 115 -16 25 -8 52 -13 60 -10 16 6 19 37 4 52
-6 6 11 20 47 39 31 16 79 50 107 77 28 26 54 47 58 48 3 0 21 -37 38 -82z"/>
<path d="M2282 4377 c-40 -42 -55 -104 -60 -247 -5 -151 7 -259 45 -389 28
-98 77 -218 100 -243 19 -22 64 -23 102 -3 36 18 119 109 149 163 l23 41 -23
20 c-12 12 -17 21 -11 21 17 0 25 31 12 47 -19 22 -1 28 36 10 40 -19 65 -13
65 15 0 29 -161 341 -230 446 -33 49 -73 101 -90 116 -40 33 -88 35 -118 3z
m103 -74 c19 -21 61 -82 93 -138 60 -101 156 -285 150 -289 -2 -1 -25 -8 -53
-14 -27 -7 -58 -21 -68 -31 -20 -19 -14 -51 10 -51 10 0 5 -11 -17 -36 -43
-49 -37 -70 18 -66 41 2 42 1 32 -19 -22 -39 -106 -119 -127 -119 -42 0 -122
247 -144 445 -18 161 13 355 56 355 9 0 31 -17 50 -37z"/>
<path d="M4052 4150 c-30 -16 -85 -55 -123 -85 -100 -81 -317 -282 -330 -307
-15 -29 2 -42 50 -40 40 3 63 -11 36 -22 -18 -7 -20 -37 -3 -54 9 -9 6 -12
-14 -12 -37 0 -40 -19 -17 -101 36 -132 85 -199 143 -199 25 0 43 13 99 72
184 194 325 494 315 670 -3 59 -8 73 -27 89 -32 26 -67 23 -129 -11z m99 -57
c7 -128 -55 -309 -163 -475 -53 -81 -177 -228 -193 -228 -18 0 -42 31 -63 80
-37 86 -36 123 2 85 8 -8 24 -15 35 -15 17 0 21 6 21 33 0 18 -7 42 -15 53
-20 26 -19 31 7 30 54 -2 14 77 -54 105 -16 6 -27 15 -26 18 14 31 302 278
370 316 57 33 78 32 79 -2z"/>
<path d="M2812 3597 c-32 -34 -37 -76 -13 -114 23 -37 75 -52 111 -33 33 18
33 8 -1 -33 -39 -47 -24 -48 22 -1 34 35 115 94 130 94 4 0 0 -14 -8 -31 -13
-26 -14 -40 -4 -84 14 -63 53 -126 93 -150 50 -29 35 -53 -51 -81 -133 -43
-222 -28 -283 48 -88 111 -158 41 -129 -129 16 -92 52 -163 111 -216 47 -43
128 -87 180 -100 16 -4 32 -19 42 -39 67 -141 248 -219 366 -159 84 43 103
110 58 199 l-24 47 47 47 c67 66 113 156 109 210 -3 39 -6 43 -32 46 -20 3
-42 -6 -71 -27 -24 -17 -54 -31 -68 -31 -44 0 -177 105 -177 139 0 15 14 26
49 41 79 35 151 129 134 177 -14 42 19 -6 37 -53 16 -41 19 -44 20 -21 0 25 3
27 39 27 32 0 44 6 65 31 31 37 33 63 6 106 -32 53 -122 55 -150 2 l-12 -21
-26 25 c-53 49 -90 61 -192 61 -100 1 -152 -16 -206 -66 l-21 -19 1 40 c1 56
-33 91 -89 91 -30 0 -47 -6 -63 -23z m265 -591 c20 -17 43 -61 76 -143 50
-125 99 -192 131 -180 23 9 19 36 -8 58 -21 17 -45 69 -113 247 -3 7 3 12 14
12 27 0 111 -83 130 -128 8 -20 28 -55 44 -77 70 -98 68 -143 -8 -177 -41 -18
-53 -19 -95 -9 -89 20 -177 101 -199 185 -29 105 -43 140 -72 173 -30 34 -30
36 -12 49 29 22 80 17 112 -10z"/>
</g>
</svg>
