<?xml version="1.0" standalone="no"?>
<!DOCTYPE svg PUBLIC "-//W3C//DTD SVG 20010904//EN"
 "http://www.w3.org/TR/2001/REC-SVG-20010904/DTD/svg10.dtd">
<svg version="1.0" xmlns="http://www.w3.org/2000/svg"
 width="900.000000pt" height="511.000000pt" viewBox="0 0 900.000000 511.000000"
 preserveAspectRatio="xMidYMid meet">

<g transform="translate(0.000000,511.000000) scale(0.100000,-0.100000)"
fill="#000000" stroke="none">
<path d="M6078 4661 c-29 -19 -108 -104 -224 -242 -341 -406 -473 -579 -531
-696 -38 -76 -38 -78 -38 -198 l0 -122 -50 38 c-70 53 -223 123 -325 149 -127
33 -308 38 -430 12 -440 -92 -730 -429 -844 -983 -14 -70 -26 -138 -26 -153 0
-17 -10 -36 -26 -49 -74 -62 -73 -57 -73 -193 0 -111 2 -127 19 -144 11 -11
27 -20 35 -20 13 0 15 -17 13 -117 l-3 -117 -30 -7 c-16 -4 -73 -17 -125 -30
-214 -49 -420 -132 -486 -195 -47 -44 -47 -93 -1 -138 17 -18 41 -38 52 -44
13 -7 17 -14 10 -21 -5 -5 -116 -41 -245 -79 -395 -118 -523 -188 -537 -291
-8 -55 10 -93 68 -145 114 -102 354 -180 664 -216 55 -6 288 -15 518 -19 277
-5 421 -11 428 -18 8 -8 8 -17 0 -31 -21 -39 -13 -88 18 -120 54 -54 127 -67
361 -66 223 2 440 18 1210 94 278 27 561 54 630 60 256 22 414 81 471 174 46
76 18 132 -124 244 -154 121 -194 159 -182 171 6 5 62 32 125 59 298 128 390
194 390 284 0 102 -136 167 -458 222 -138 23 -145 26 -228 78 -97 60 -208 157
-229 198 -8 16 -22 50 -31 77 -39 115 -135 275 -197 330 l-34 30 -7 133 c-9
164 -39 349 -76 458 l-28 83 30 15 c19 10 63 16 126 17 89 2 102 5 160 36 115
62 139 95 533 731 100 162 197 319 215 348 41 68 51 120 30 161 -15 28 -28 35
-81 43 -12 2 -21 12 -23 25 -5 31 -49 63 -87 63 -27 0 -35 5 -43 29 -13 37
-54 65 -87 59 -14 -3 -25 -1 -25 4 0 5 -12 20 -26 33 -37 34 -87 33 -146 -4z
m105 -52 c7 -12 -55 -106 -282 -429 -160 -227 -291 -421 -291 -430 0 -22 23
-42 41 -35 8 3 138 182 289 397 151 216 286 405 298 420 29 35 62 38 62 6 0
-31 -7 -42 -311 -474 -276 -392 -295 -425 -243 -432 18 -3 70 66 310 407 173
246 300 416 317 426 51 30 72 3 42 -56 -9 -16 -136 -197 -284 -402 -147 -205
-275 -384 -284 -398 -21 -32 -13 -59 17 -59 18 0 80 81 308 398 157 218 297
408 311 421 30 28 57 22 57 -12 0 -25 -1 -26 -277 -472 -364 -588 -382 -614
-478 -660 -46 -23 -66 -27 -141 -26 -145 1 -213 -44 -330 -222 -78 -119 -396
-626 -673 -1074 l-193 -313 -80 -42 c-132 -71 -163 -125 -117 -207 l21 -37
-112 -182 c-145 -235 -201 -292 -287 -292 -62 1 -168 71 -200 134 -9 17 -17
56 -17 87 -1 66 16 95 154 262 63 76 86 97 98 91 9 -4 38 -12 63 -17 124 -28
201 80 139 192 l-22 38 304 364 c371 444 689 830 828 1004 156 196 193 294
150 392 -44 100 -37 219 21 335 38 76 195 283 419 553 217 261 253 301 300
337 38 30 57 32 73 7z m-1428 -1059 c132 -16 197 -35 320 -95 84 -40 127 -68
178 -117 l66 -63 -19 -50 c-11 -27 -45 -84 -77 -125 -67 -89 -377 -469 -599
-735 l-159 -190 -180 2 -180 1 -217 108 c-253 126 -232 95 -193 290 47 232
118 417 219 568 53 80 157 190 226 241 134 99 303 157 510 174 8 0 56 -4 105
-9z m719 -579 c34 -108 54 -230 66 -406 5 -82 9 -149 7 -150 -24 -19 -232
-103 -318 -129 -125 -37 -271 -69 -294 -64 -11 2 41 92 176 308 181 290 330
520 335 520 2 0 14 -36 28 -79z m-1619 -744 l70 -36 -60 -1 c-33 0 -103 -11
-155 -25 -52 -14 -104 -28 -115 -31 -20 -5 -21 -2 -19 91 2 54 8 102 14 110 9
11 27 6 103 -29 51 -24 124 -59 162 -79z m1798 61 c51 -72 107 -180 131 -254
36 -110 123 -199 302 -310 192 -117 187 -114 172 -131 -7 -9 -69 -53 -138 -98
-200 -130 -258 -213 -226 -320 20 -64 9 -76 -61 -64 -27 4 -91 8 -143 8 -52 1
-138 5 -190 11 -52 5 -149 13 -215 18 -198 15 -249 50 -341 235 -31 62 -76
139 -100 173 -46 66 -139 156 -185 180 l-29 14 21 39 c11 22 26 44 32 49 7 4
57 14 112 20 117 14 167 28 278 78 159 71 308 183 432 327 42 48 82 87 90 87
8 0 34 -28 58 -62z m-245 -30 c-40 -62 -276 -225 -395 -273 -104 -42 -273 -78
-273 -58 0 5 29 54 63 108 l64 99 134 26 c146 29 285 67 364 99 28 11 52 20
54 20 2 1 -3 -9 -11 -21z m-1022 -177 c-18 -20 -50 -17 -93 8 -14 8 -4 10 46
11 62 0 64 0 47 -19z m-250 -139 c63 -106 67 -82 -36 -206 l-55 -66 -28 33
c-38 44 -86 138 -113 222 -23 73 -47 93 -73 61 -25 -29 44 -210 114 -301 131
-169 138 -184 109 -216 -61 -67 -240 45 -315 196 -18 37 -39 69 -47 72 -21 9
-45 -22 -39 -49 11 -43 82 -149 136 -203 l54 -54 -72 -86 c-83 -98 -87 -98
-122 -7 -28 71 -31 204 -9 505 l14 207 146 1 c80 0 167 7 195 13 61 16 61 15
141 -122z m174 56 c0 -5 -13 -2 -30 7 -16 9 -30 17 -30 19 0 3 14 -1 30 -7 17
-6 30 -15 30 -19z m-69 -59 c11 -5 17 -14 14 -20 -9 -14 -19 -11 -33 11 -14
23 -10 25 19 9z m-675 -241 c-3 -29 -9 -82 -12 -118 -10 -94 -39 -146 -99
-178 -21 -11 -73 -18 -177 -22 -187 -9 -192 -12 -186 -117 4 -55 13 -88 37
-137 41 -84 78 -112 146 -109 42 1 251 42 306 58 13 4 16 -4 16 -54 0 -46 6
-69 27 -105 49 -84 154 -145 249 -146 97 0 173 51 253 172 l46 69 20 -33 c48
-79 109 -118 185 -118 49 0 523 84 676 119 74 18 96 19 178 10 125 -15 463 -5
551 15 172 39 214 87 176 193 -25 69 43 148 219 254 46 28 99 66 119 84 32 31
36 39 32 75 l-4 41 41 -6 c162 -26 321 -84 350 -129 16 -24 16 -28 1 -51 -35
-54 -128 -107 -380 -216 -111 -48 -136 -67 -136 -104 0 -42 26 -70 149 -164
123 -94 191 -160 191 -188 0 -34 -76 -90 -157 -116 -108 -36 -162 -45 -363
-62 -96 -8 -380 -35 -630 -60 -781 -77 -1123 -101 -1245 -90 -92 8 -167 30
-189 54 -18 20 -18 22 3 62 28 53 22 83 -21 99 -22 9 -158 15 -418 21 -212 5
-441 13 -510 19 -370 28 -706 152 -735 271 -9 37 29 78 112 122 86 44 163 72
414 147 111 33 214 67 230 75 65 34 62 90 -6 131 -85 49 -78 77 32 133 113 56
413 149 487 151 l28 0 -6 -52z m1146 -97 l43 -45 -42 36 c-23 20 -60 47 -82
60 -23 13 -41 27 -41 31 0 16 80 -37 122 -82z m-76 -23 c49 -36 94 -81 94 -93
0 -13 -217 -119 -275 -134 -61 -16 -100 -13 -129 10 -53 42 -32 68 124 154 58
32 114 64 125 71 25 18 27 18 61 -8z m244 -227 c49 -97 72 -130 121 -175 92
-85 177 -104 527 -116 7 0 10 -5 6 -11 -7 -12 -200 -5 -334 12 -179 22 -315
148 -374 348 -28 94 -19 85 54 -58z m-116 27 c19 -95 132 -259 212 -309 19
-12 32 -25 27 -29 -8 -8 -99 -26 -432 -86 l-204 -37 -41 21 c-54 29 -89 81
-90 135 -1 55 15 62 179 76 151 12 214 29 282 74 36 24 48 38 48 57 0 35 -36
38 -77 7 -18 -13 -53 -32 -78 -41 -44 -17 -275 -45 -285 -34 -3 3 2 19 12 36
15 25 22 30 45 25 48 -10 169 26 278 81 58 29 108 54 111 55 4 0 9 -13 13 -31z
m-1190 -30 c8 -29 29 -75 46 -102 50 -78 40 -87 -139 -125 -224 -49 -232 -50
-264 -12 -25 30 -67 143 -67 181 0 16 14 18 138 22 146 4 205 20 246 67 11 11
20 21 22 21 1 0 9 -24 18 -52z"/>
<path d="M4110 2957 c-79 -41 -106 -80 -80 -112 26 -31 119 -8 173 42 46 45
31 83 -32 83 -20 0 -47 -6 -61 -13z"/>
<path d="M4747 2955 c-9 -9 -17 -23 -17 -31 0 -46 136 -108 187 -85 20 9 24
17 21 43 -2 27 -11 37 -44 55 -58 32 -125 40 -147 18z"/>
<path d="M4319 2817 c-96 -22 -152 -75 -131 -122 21 -45 99 -59 332 -60 222 0
255 4 265 36 29 90 -283 187 -466 146z m236 -72 c33 -7 76 -21 95 -30 33 -15
25 -15 -160 -12 -129 1 -202 6 -215 14 -11 7 -18 13 -15 13 3 0 23 7 45 15 52
18 173 19 250 0z"/>
<path d="M5036 1869 c-65 -18 -106 -86 -106 -176 0 -62 17 -100 59 -136 44
-37 91 -42 151 -16 38 16 53 19 63 10 8 -6 35 -13 60 -16 37 -3 49 -1 59 14 7
9 21 20 31 24 9 3 17 15 17 25 0 23 30 52 54 52 30 0 66 46 66 85 0 78 -84
112 -140 57 -25 -25 -28 -36 -27 -84 1 -69 -25 -104 -70 -94 -27 6 -28 8 -24
58 2 28 -2 68 -8 87 -22 75 -114 129 -185 110z m112 -68 c39 -40 46 -68 20
-82 -17 -9 -25 -6 -48 16 l-28 27 -42 -33 -41 -33 -20 21 c-20 19 -20 22 -5
51 35 69 113 84 164 33z m286 -37 c9 -8 16 -22 16 -29 0 -18 -27 -45 -45 -45
-18 0 -45 27 -45 45 0 18 27 45 45 45 7 0 21 -7 29 -16z m-269 -96 c32 15 33
1 5 -46 -23 -38 -79 -65 -115 -56 -32 8 -85 68 -85 96 0 20 1 20 18 5 25 -23
34 -22 67 13 l29 30 28 -27 c24 -23 31 -25 53 -15z m200 -8 c3 -5 1 -10 -4
-10 -6 0 -11 5 -11 10 0 6 2 10 4 10 3 0 8 -4 11 -10z m-15 -50 c0 -5 -7 -10
-15 -10 -8 0 -15 5 -15 10 0 6 7 10 15 10 8 0 15 -4 15 -10z m-100 -35 c0 -8
-4 -15 -9 -15 -13 0 -22 16 -14 24 11 11 23 6 23 -9z m51 2 c-1 -12 -15 -9
-19 4 -3 6 1 10 8 8 6 -3 11 -8 11 -12z"/>
</g>
</svg>
