<?xml version="1.0" standalone="no"?>
<!DOCTYPE svg PUBLIC "-//W3C//DTD SVG 20010904//EN"
 "http://www.w3.org/TR/2001/REC-SVG-20010904/DTD/svg10.dtd">
<svg version="1.0" xmlns="http://www.w3.org/2000/svg"
 width="626.000000pt" height="626.000000pt" viewBox="0 0 626.000000 626.000000"
 preserveAspectRatio="xMidYMid meet">
<metadata>
Created by potrace 1.16, written by Peter Selinger 2001-2019
</metadata>
<g transform="translate(0.000000,626.000000) scale(0.100000,-0.100000)"
fill="#000000" stroke="none">
<path d="M2151 4573 c-104 -116 -205 -363 -254 -619 -33 -167 -46 -280 -57
-484 l-8 -165 -45 -100 c-91 -204 -144 -409 -182 -706 -6 -47 -6 -47 -51 -54
-112 -16 -221 -72 -292 -149 -69 -75 -106 -157 -127 -278 l-6 -38 -349 0
c-324 0 -350 -1 -359 -18 -6 -11 -6 -24 0 -35 9 -16 39 -17 359 -17 l349 0 6
-37 c14 -82 18 -99 35 -133 44 -86 122 -118 222 -90 21 6 50 22 66 35 28 23
28 23 40 4 57 -91 261 -71 348 34 22 27 33 34 44 27 19 -13 82 -13 114 0 40
15 106 81 123 122 l15 38 284 0 283 0 27 -60 c34 -76 112 -150 192 -181 50
-20 75 -23 202 -24 129 0 151 3 203 23 92 37 150 90 189 171 l33 70 1137 0
c1079 1 1138 2 1147 19 6 11 6 24 0 35 -9 16 -41 17 -398 17 l-389 0 -5 203
c-5 218 -15 277 -65 377 -34 67 -95 116 -156 125 -39 6 -46 11 -51 36 -13 57
-74 107 -152 124 -30 6 -34 12 -53 78 -27 94 -75 224 -116 314 -31 68 -33 81
-43 255 -32 514 -146 905 -319 1090 -50 54 -77 60 -129 28 -93 -56 -248 -272
-409 -567 l-39 -73 -55 8 c-72 9 -588 9 -665 0 l-60 -8 -75 137 c-180 328
-341 523 -431 523 -21 0 -40 -14 -78 -57z m182 -185 c54 -65 121 -165 216
-322 l72 -120 -88 -31 c-194 -70 -349 -169 -481 -309 l-74 -78 7 94 c27 398
103 658 224 771 27 26 57 47 65 47 8 0 34 -24 59 -52z m1684 30 c136 -101 220
-365 249 -782 l7 -99 -84 85 c-137 138 -272 223 -455 287 l-103 37 65 109
c135 225 251 385 278 385 7 0 26 -10 43 -22z m-868 -735 c6 -71 14 -152 17
-180 l5 -53 -35 0 c-35 0 -36 1 -36 38 0 75 26 322 34 322 2 0 9 -57 15 -127z
m-305 -106 c48 -27 94 -82 101 -122 6 -29 4 -31 -60 -59 -36 -15 -88 -48 -115
-73 l-49 -44 -16 35 c-48 100 -202 102 -248 3 -23 -48 -21 -98 6 -138 40 -60
111 -81 180 -54 18 7 18 6 2 -31 -24 -59 -76 -133 -142 -202 -32 -34 -57 -62
-55 -62 11 0 85 58 131 103 65 63 124 150 146 217 57 170 308 262 550 200 135
-35 207 -91 250 -199 34 -82 67 -134 129 -199 45 -48 136 -122 149 -122 3 0
-19 25 -49 55 -60 63 -124 152 -148 209 -9 21 -16 40 -16 42 0 2 16 -4 35 -12
65 -27 119 -12 169 46 20 24 26 42 26 78 0 92 -62 148 -152 140 -55 -6 -92
-33 -115 -87 l-14 -34 -47 46 c-45 43 -93 73 -154 96 -16 6 -28 16 -28 22 0
45 93 152 143 164 39 10 71 2 81 -21 9 -20 17 -22 105 -21 113 0 188 -19 249
-63 55 -40 101 -104 109 -153 4 -29 12 -41 27 -45 11 -3 56 -23 98 -44 134
-68 240 -195 308 -372 36 -93 33 -110 -15 -90 -72 30 -192 8 -237 -42 -25 -29
-48 -89 -48 -126 0 -30 -4 -35 -52 -53 -63 -24 -92 -62 -109 -143 -15 -71 -1
-215 34 -349 l24 -93 -228 0 -229 0 -2 75 c-1 41 -2 81 -2 89 -1 7 28 35 64
62 102 78 170 184 187 294 3 19 14 44 24 55 20 22 49 87 49 107 -1 7 -8 0 -17
-17 -57 -108 -168 -149 -300 -110 -50 15 -79 34 -188 125 -55 47 -101 67 -187
85 -25 5 -28 9 -28 49 0 42 1 44 46 61 65 25 147 111 189 200 60 124 45 194
-50 240 -77 38 -191 52 -307 37 -156 -19 -235 -79 -225 -169 11 -106 120 -257
216 -303 50 -23 51 -25 51 -66 0 -45 0 -46 -70 -59 -54 -11 -102 -39 -177
-103 -104 -90 -141 -107 -244 -107 -77 0 -90 3 -127 28 -24 15 -54 49 -72 80
-24 41 -29 46 -24 22 3 -16 18 -50 32 -75 15 -25 36 -77 47 -116 12 -38 33
-90 47 -115 32 -54 118 -140 164 -165 l34 -19 -4 -90 -4 -90 -273 0 -272 0
-13 64 c-40 194 -187 360 -353 396 l-33 7 7 75 c10 104 47 263 84 360 75 192
215 342 367 390 48 15 52 18 63 62 6 25 27 67 46 93 62 84 214 137 353 121 34
-4 52 -2 52 5 0 20 31 42 58 42 15 0 45 -10 66 -23z m1818 -824 c36 -18 51
-48 45 -89 -8 -48 11 -63 67 -57 59 7 98 -10 130 -55 56 -81 76 -192 76 -416
l0 -156 -439 0 -439 0 -21 78 c-37 140 -43 176 -44 272 -2 136 18 170 103 170
20 0 42 6 48 13 5 6 12 45 14 86 3 65 7 76 31 97 52 45 162 41 188 -7 18 -34
53 -23 73 22 29 65 92 81 168 42z m-2832 -406 c103 -49 186 -157 225 -291 31
-108 7 -190 -69 -231 -44 -24 -77 -11 -107 40 -36 61 -79 41 -79 -37 0 -40 -5
-54 -26 -73 -29 -27 -103 -55 -145 -55 -41 0 -87 44 -102 98 -23 77 -70 85
-82 13 -10 -58 -51 -91 -115 -91 -41 0 -52 4 -74 30 -34 41 -46 89 -46 192 0
275 183 445 470 435 77 -3 105 -9 150 -30z m1203 7 c26 -9 51 -23 56 -33 4 -9
14 -119 21 -244 7 -126 16 -243 20 -260 l8 -32 1 36 c2 76 32 495 36 506 5 15
98 43 142 43 58 0 92 -25 123 -92 40 -84 53 -156 48 -258 -7 -134 -62 -226
-163 -271 -67 -29 -184 -42 -268 -29 -168 26 -250 100 -278 254 -27 143 36
355 115 386 33 14 88 11 139 -6z"/>
</g>
</svg>
