<?xml version="1.0" standalone="no"?>
<!DOCTYPE svg PUBLIC "-//W3C//DTD SVG 20010904//EN"
 "http://www.w3.org/TR/2001/REC-SVG-20010904/DTD/svg10.dtd">
<svg version="1.0" xmlns="http://www.w3.org/2000/svg"
 width="320.000000pt" height="240.000000pt" viewBox="0 0 320.000000 240.000000"
 preserveAspectRatio="xMidYMid meet">

<g transform="translate(0.000000,240.000000) scale(0.100000,-0.100000)"
fill="#000000" stroke="none">
<path d="M1315 2287 c-166 -43 -298 -155 -381 -321 -26 -53 -51 -96 -55 -96
-4 0 -27 11 -50 25 -80 45 -170 24 -199 -45 -12 -29 -11 -37 6 -68 12 -23 40
-48 74 -68 59 -35 123 -101 116 -120 -2 -6 -9 -92 -16 -190 -6 -99 -16 -200
-21 -225 l-10 -46 -76 -7 c-42 -3 -108 -6 -148 -6 -192 0 -316 -62 -385 -192
-26 -49 -34 -77 -38 -135 -6 -91 13 -146 71 -203 69 -70 134 -97 342 -141 367
-78 564 -145 691 -235 122 -87 247 -120 418 -111 149 8 216 28 516 147 300
118 393 145 555 160 144 13 228 38 285 87 69 60 88 138 55 234 -37 108 -147
171 -391 224 -212 46 -287 68 -376 109 l-75 34 -7 93 c-4 52 -11 155 -17 230
-10 122 -10 139 6 170 25 49 62 86 128 125 63 39 77 58 77 104 0 95 -102 129
-208 69 -30 -17 -58 -27 -62 -22 -3 4 -12 28 -19 53 -46 159 -170 280 -356
345 -73 26 -94 29 -240 31 -107 2 -177 -1 -210 -9z m390 -63 c194 -52 331
-183 374 -358 12 -47 11 -50 -14 -76 -15 -16 -25 -36 -23 -46 6 -35 39 -28 87
19 91 88 176 120 215 81 29 -28 20 -40 -71 -98 -69 -44 -114 -105 -149 -200
-29 -82 -31 -116 -5 -123 23 -6 28 -29 37 -186 5 -88 4 -124 -6 -142 -11 -20
-10 -35 4 -89 49 -197 -2 -279 -204 -321 -93 -19 -127 -38 -147 -80 -9 -19
-20 -35 -24 -35 -4 0 -17 12 -29 28 l-22 27 71 66 c71 66 85 92 55 103 -21 8
-68 -21 -119 -73 l-39 -41 -106 1 c-58 0 -146 4 -196 7 -90 7 -92 8 -136 48
-55 51 -82 66 -102 58 -16 -6 -23 -54 -8 -54 16 0 122 -102 122 -118 0 -16
-28 -52 -40 -52 -4 0 -13 13 -20 30 -17 40 -63 67 -148 85 -134 28 -188 63
-218 142 -19 49 -18 82 12 437 12 132 20 191 26 177 11 -32 52 -25 56 9 4 34
-32 134 -71 198 -24 39 -50 66 -102 99 -91 60 -97 69 -69 97 39 39 119 9 215
-81 49 -46 81 -53 87 -19 2 10 -10 32 -29 52 l-32 33 22 57 c61 161 187 286
335 334 101 33 298 35 411 4z m-929 -1282 c-1 -126 0 -129 29 -178 43 -69 105
-108 217 -134 115 -27 124 -32 138 -74 12 -36 26 -46 65 -46 31 0 89 50 105
91 13 31 14 31 73 25 33 -3 106 -6 163 -6 l103 0 17 -35 c31 -66 105 -96 146
-58 10 9 18 24 18 34 0 27 36 47 119 65 104 23 153 46 199 92 52 52 67 107 59
223 -4 49 -4 89 -1 89 4 0 46 -16 94 -35 48 -19 179 -55 291 -80 112 -25 227
-55 254 -66 150 -59 213 -230 115 -313 -42 -35 -141 -64 -245 -71 -179 -12
-271 -38 -600 -170 -259 -103 -355 -131 -491 -141 -141 -10 -298 35 -383 109
-42 36 -153 90 -241 117 -36 11 -103 31 -150 45 -96 29 -332 85 -361 85 -10 0
-62 14 -115 31 -80 26 -103 38 -144 77 -72 70 -87 145 -50 246 28 72 87 138
150 165 67 29 138 38 296 40 l130 1 0 -128z"/>
<path d="M1688 2093 c-19 -5 -31 -30 -22 -45 10 -15 70 -38 101 -38 16 0 39 7
51 16 53 37 -47 89 -130 67z"/>
<path d="M1271 2038 c-51 -14 -81 -38 -81 -63 0 -13 7 -26 16 -29 23 -9 86 10
118 35 25 19 36 59 17 59 -5 0 -15 2 -23 4 -7 2 -28 0 -47 -6z"/>
<path d="M1489 1977 c-111 -42 -166 -117 -107 -148 28 -15 194 -5 264 16 64
19 81 37 68 72 -19 55 -147 89 -225 60z m139 -53 c28 -12 34 -17 22 -24 -20
-10 -148 -30 -197 -30 l-38 1 30 25 c53 44 121 54 183 28z"/>
</g>
</svg>
