<?xml version="1.0" encoding="iso-8859-1"?>
<!-- Generator: Adobe Illustrator 19.0.0, SVG Export Plug-In . SVG Version: 6.00 Build 0)  -->
<svg version="1.1" id="Layer_1" xmlns="http://www.w3.org/2000/svg" xmlns:xlink="http://www.w3.org/1999/xlink" x="0px" y="0px"
	 viewBox="0 0 299.669 299.669" style="enable-background:new 0 0 299.669 299.669;" xml:space="preserve">
<g>
	<g>
		<path d="M289.065,0h-80.306c-4.929,0-8.925,3.995-8.925,8.925c0,15.206,0,126.665,0,142.588c0,27.57-22.429,49.999-49.999,49.999
			c-27.57,0-49.999-22.429-49.999-49.999c0-15.922,0-127.381,0-142.588C99.836,3.995,95.84,0,90.911,0H10.605
			C5.676,0,1.68,3.995,1.68,8.925c0,15.206,0,126.665,0,142.588c0,81.694,66.463,148.156,148.155,148.156
			S297.99,233.207,297.99,151.513c0-15.922,0-127.381,0-142.588C297.99,3.995,293.994,0,289.065,0z M217.683,17.85h62.456v31.664
			h-62.456V17.85z M19.53,17.85h62.456v31.664H19.53V17.85z M280.14,151.513L280.14,151.513
			c0,71.851-58.455,130.306-130.305,130.306S19.53,223.364,19.53,151.513v-84.15h62.456v84.15c0,37.411,30.437,67.849,67.849,67.849
			s67.849-30.437,67.849-67.849v-84.15h62.456V151.513z"/>
	</g>
</g>
<g>
</g>
<g>
</g>
<g>
</g>
<g>
</g>
<g>
</g>
<g>
</g>
<g>
</g>
<g>
</g>
<g>
</g>
<g>
</g>
<g>
</g>
<g>
</g>
<g>
</g>
<g>
</g>
<g>
</g>
</svg>
