<?xml version="1.0" encoding="iso-8859-1"?>
<!-- Generator: Adobe Illustrator 18.0.0, SVG Export Plug-In . SVG Version: 6.00 Build 0)  -->
<!DOCTYPE svg PUBLIC "-//W3C//DTD SVG 1.1//EN" "http://www.w3.org/Graphics/SVG/1.1/DTD/svg11.dtd">
<svg version="1.1" id="Capa_1" xmlns="http://www.w3.org/2000/svg" xmlns:xlink="http://www.w3.org/1999/xlink" x="0px" y="0px"
	 viewBox="0 0 433 433" style="enable-background:new 0 0 433 433;" xml:space="preserve">
<path d="M382.5,288H279.528L295.16,84.948c1.682-21.84-5.89-43.584-20.772-59.657C259.504,9.218,238.405,0,216.5,0
	c-21.905,0-43.004,9.218-57.887,25.291c-14.883,16.072-22.454,37.816-20.772,59.657L153.473,288H50.5c-8.284,0-15,6.716-15,15v78
	c0,8.284,6.716,15,15,15h15.848l12.885,30.854c1.555,3.723,5.193,6.146,9.228,6.146h256.08c4.034,0,7.673-2.424,9.228-6.146
	L366.653,396H382.5c8.284,0,15-6.716,15-15v-78C397.5,294.716,390.784,288,382.5,288z M167.752,82.645
	c-1.057-13.734,3.515-26.864,12.874-36.971C189.985,35.566,202.726,30,216.5,30s26.515,5.566,35.874,15.673
	c9.359,10.107,13.931,23.237,12.874,36.972L249.439,288h-65.878L167.752,82.645z M65.5,318h302v48h-302V318z M337.879,413H95.121
	l-7.1-17h256.957L337.879,413z"/>
<g>
</g>
<g>
</g>
<g>
</g>
<g>
</g>
<g>
</g>
<g>
</g>
<g>
</g>
<g>
</g>
<g>
</g>
<g>
</g>
<g>
</g>
<g>
</g>
<g>
</g>
<g>
</g>
<g>
</g>
</svg>
